<?xml version="1.0" standalone="no"?>
<!DOCTYPE svg PUBLIC "-//W3C//DTD SVG 20010904//EN" "http://www.w3.org/TR/2001/REC-SVG-20010904/DTD/svg10.dtd">
<svg version="1.0" xmlns="http://www.w3.org/2000/svg" width="300.000000pt" height="300.000000pt"
        viewBox="0 0 300.000000 300.000000" preserveAspectRatio="xMidYMid meet">
        <metadata>
                Created by potrace 1.10, written by Peter Selinger 2001-2011
        </metadata>
        <g transform="translate(0.000000,300.000000) scale(0.100000,-0.100000)" fill="#000000" stroke="none">
                <path d="M0 1500 l0 -1500 1500 0 1500 0 0 1500 0 1500 -1500 0 -1500 0 0
-1500z m878 400 c18 -11 37 -30 43 -42 9 -22 15 -23 94 -20 l85 3 1 -68 c0
-37 2 -88 4 -113 12 -154 14 -384 4 -397 -9 -10 -71 -13 -299 -13 -244 0 -289
2 -300 15 -10 12 -11 71 -5 273 5 141 8 267 8 280 -1 21 3 22 78 22 l79 0 -6
-27 c-4 -16 -10 -35 -15 -44 -11 -21 4 -42 27 -37 15 3 18 11 16 36 -5 65 7
72 117 72 l99 0 10 -29 c6 -16 8 -39 5 -50 -3 -14 0 -23 12 -27 30 -12 39 11
22 58 l-16 43 4 -45 5 -45 -13 40 c-19 61 -45 92 -92 111 -41 15 -46 15 -82
-2 -45 -22 -83 -75 -83 -115 0 -16 -5 -29 -10 -29 -28 0 28 128 67 152 38 23
101 22 141 -2z m690 -170 c-3 -113 -4 -120 -23 -120 -19 0 -20 7 -23 120 l-3
120 26 0 25 0 -2 -120z m-233 76 c17 -12 17 -16 6 -30 -10 -12 -17 -14 -25 -6
-15 15 -46 12 -46 -5 0 -9 12 -21 28 -27 15 -7 34 -18 43 -26 15 -11 20 -10
42 12 51 51 127 22 127 -47 0 -41 -26 -68 -67 -69 -33 -1 -73 18 -73 34 0 7
-9 2 -20 -10 -29 -31 -89 -30 -119 2 l-23 24 22 7 c12 4 27 2 33 -4 6 -6 21
-11 34 -11 39 0 26 29 -21 49 -59 26 -73 64 -36 101 23 23 68 26 95 6z m395
-112 c0 -30 5 -54 10 -54 6 0 10 25 10 55 0 48 2 55 20 55 11 0 20 -5 20 -12
0 -9 3 -9 12 0 17 17 44 15 62 -4 11 -10 16 -34 16 -70 0 -47 -3 -54 -19 -54
-17 0 -20 8 -23 48 -3 39 -6 47 -23 47 -17 0 -20 -8 -23 -47 l-3 -48 -39 0
c-21 0 -41 4 -45 9 -3 6 -16 4 -31 -4 -19 -10 -34 -11 -53 -4 -33 13 -41 26
-41 67 0 50 28 70 94 70 l56 -1 0 -53z m310 7 c0 -26 5 -52 11 -58 7 -7 9 -19
5 -28 -6 -16 -8 -16 -30 -2 -16 11 -26 13 -34 5 -6 -6 -23 -10 -38 -10 -56 0
-85 81 -45 121 15 15 33 19 75 19 l56 -1 0 -46z m-600 -261 c0 -118 0 -120
-22 -120 -22 0 -23 3 -26 120 l-3 120 26 0 25 0 0 -120z m270 43 l0 -77 28 27
c15 15 39 27 52 27 24 0 23 0 -8 -33 l-32 -33 25 -24 c19 -18 28 -21 37 -12 9
9 15 9 25 0 9 -7 17 -8 24 -1 7 7 0 14 -20 22 -37 16 -46 39 -24 63 21 23 78
21 78 -2 0 -10 -8 -14 -22 -13 -13 2 -23 -2 -23 -7 0 -6 5 -10 10 -10 13 0 50
-37 50 -49 0 -25 -33 -40 -87 -40 -53 0 -60 3 -85 32 l-27 32 -1 -32 c0 -26
-4 -33 -20 -33 -19 0 -20 7 -20 120 0 113 1 120 20 120 18 0 20 -7 20 -77z
m-348 30 c22 -20 23 -56 2 -74 -14 -11 -14 -13 0 -21 10 -6 16 -23 16 -43 0
-43 -20 -55 -94 -55 l-56 0 0 105 0 105 57 0 c38 0 62 -5 75 -17z m138 -2 c0
-27 -19 -36 -37 -18 -18 18 -9 37 18 37 12 0 19 -7 19 -19z m0 -121 c0 -66 -1
-70 -22 -70 -22 0 -23 3 -20 70 3 61 6 70 23 70 17 0 19 -8 19 -70z m60 58 c0
-9 3 -9 12 0 7 7 21 12 33 12 34 0 45 -20 45 -82 0 -51 -2 -58 -19 -58 -17 0
-20 8 -23 48 -3 39 -6 47 -23 47 -17 0 -20 -8 -23 -47 -3 -40 -6 -48 -23 -48
-17 0 -19 7 -19 70 0 63 2 70 20 70 11 0 20 -5 20 -12z" />
                <path d="M537 1813 c-3 -5 -8 -100 -12 -213 -4 -113 -8 -227 -10 -255 -1 -27
2 -56 7 -62 8 -10 77 -13 282 -13 149 0 277 4 284 9 11 6 12 42 7 172 -9 265
-15 353 -24 362 -4 4 -31 7 -59 5 l-52 -3 15 -29 c14 -26 14 -31 0 -52 -9 -13
-21 -24 -29 -24 -24 0 -47 36 -44 71 l3 34 -97 3 c-107 3 -103 6 -98 -59 0
-14 -6 -32 -15 -39 -24 -20 -65 2 -65 35 0 14 5 25 10 25 6 0 10 9 10 20 0 18
-7 20 -54 20 -30 0 -57 -3 -59 -7z" />
                <path d="M1412 1698 c-16 -16 -15 -23 4 -42 21 -22 56 -3 52 27 -3 25 -37 34
-56 15z" />
                <path d="M1623 1694 c-7 -18 6 -45 24 -51 6 -2 18 3 27 12 12 12 13 21 6 36
-13 23 -48 25 -57 3z" />
                <path d="M1937 1704 c-13 -14 -7 -43 12 -53 27 -15 60 11 45 36 -12 19 -45 29
-57 17z" />
                <path d="M1270 1465 c0 -19 5 -25 23 -25 13 0 28 5 34 11 18 18 3 39 -28 39
-24 0 -29 -4 -29 -25z" />
                <path d="M1270 1385 c0 -24 3 -26 33 -23 24 2 32 8 32 23 0 15 -8 21 -32 23
-30 3 -33 1 -33 -23z" />
        </g>
</svg>